# xmcd CD database file
#
# Track frame offsets:
#	150
#	14005
#	26025
#	43155
#	59270
#	74110
#	84545
#	99032
#	114465
#	128637
#	141107
#	155655
#	170262
#	189547
#	204800
#	218110
#	240902
#	262240
#	270250
#
# Disc length: 4026 seconds
#
# Revision: 1
# Processed by: cddbd v1.5.2PL0 Copyright (c) Steve Scherf et al.
# Submitted via: CDex 1.51
#
DISCID=0b0fb813
DTITLE=Plava Trava Zaborava - Dance All Night - Live !
DYEAR=1993
DGENRE=Country
TTITLE0=Ghost Riders In The Sky
TTITLE1=Dance All Night
TTITLE2=Downtown Girl
TTITLE3=Making Believe
TTITLE4=Forever And Ever Amen
TTITLE5=Cash On The Barrelhead
TTITLE6=Jackson
TTITLE7=Lovesick Blues
TTITLE8=C'est La Vie (You Never Can Tell)
TTITLE9=Oh Lonesome Me
TTITLE10=The Gates Of Regret
TTITLE11=I Slipped Your Mind
TTITLE12=Mahagony Eyes
TTITLE13=Lord Have Mercy On Me
TTITLE14=San Antonio Rose
TTITLE15=Deep In The Heart Of Texas
TTITLE16=Duelling Fiddles
TTITLE17=Lost And I'll Never Find The Way
TTITLE18=She'll Be Coming 'Round The Mountain
EXTD=YEAR: 1993
EXTT0=
EXTT1=
EXTT2=
EXTT3=
EXTT4=
EXTT5=
EXTT6=
EXTT7=
EXTT8=
EXTT9=
EXTT10=
EXTT11=
EXTT12=
EXTT13=
EXTT14=
EXTT15=
EXTT16=
EXTT17=
EXTT18=
PLAYORDER=
